<svg xmlns="http://www.w3.org/2000/svg" viewBox="0 0 512 512" role="img" aria-label="Devopster icon">
  <rect width="512" height="512" rx="72" fill="#0b4ecf"/>

  <g fill="#e31b23" stroke="#9d1117" stroke-width="10" stroke-linecap="round" stroke-linejoin="round">
    <ellipse cx="256" cy="280" rx="128" ry="92"/>
    <ellipse cx="256" cy="198" rx="72" ry="58"/>

    <path d="M184 160c-28-24-44-54-48-82 30 10 52 28 70 54"/>
    <path d="M328 160c28-24 44-54 48-82-30 10-52 28-70 54"/>

    <path d="M160 256c-36-28-58-62-64-98 38 10 66 30 90 64"/>
    <path d="M352 256c36-28 58-62 64-98-38 10-66 30-90 64"/>

    <path d="M168 316c-30 12-52 36-60 68 32-8 56-22 78-42"/>
    <path d="M344 316c30 12 52 36 60 68-32-8-56-22-78-42"/>

    <path d="M222 222c-12 0-22-10-22-22s10-22 22-22" fill="none"/>
    <path d="M290 222c12 0 22-10 22-22s-10-22-22-22" fill="none"/>
  </g>

  <circle cx="236" cy="194" r="8" fill="#ffffff"/>
  <circle cx="276" cy="194" r="8" fill="#ffffff"/>

  <g stroke="#e31b23" stroke-width="10" stroke-linecap="round">
    <path d="M232 358v84"/>
    <path d="M256 362v86"/>
    <path d="M280 358v84"/>
  </g>
</svg>
